<?xml version="1.0" standalone="no"?><!DOCTYPE svg PUBLIC "-//W3C//DTD SVG 1.1//EN" "http://www.w3.org/Graphics/SVG/1.1/DTD/svg11.dtd"><svg t="1565074128485" class="icon" viewBox="0 0 1024 1024" version="1.1" xmlns="http://www.w3.org/2000/svg" p-id="9997" xmlns:xlink="http://www.w3.org/1999/xlink" width="200" height="200"><defs><style type="text/css"></style></defs><path d="M65.55146 825.64028" p-id="9998"></path><path d="M958.684924 203.64612c0-8.463766-7.472182-15.950274-15.951297-15.950274L336.682577 187.695846c-8.478092 0-15.950274 7.486508-15.950274 15.950274l0 95.690386c0 8.478092 7.472182 15.950274 15.950274 15.950274l606.051049 0c8.479115 0 15.951297-7.472182 15.951297-15.950274L958.684924 203.64612z" p-id="9999"></path><path d="M958.684924 458.826963c0-8.479115-7.472182-15.935947-15.951297-15.935947L336.682577 442.891016c-9.469676 0-15.950274 6.466272-15.950274 15.935947l0 95.705736c0 8.448416 7.472182 15.934924 15.950274 15.934924l606.051049 0c8.479115 0 15.951297-7.486508 15.951297-15.934924L958.684924 458.826963z" p-id="10000"></path><path d="M203.101209 265.956258 203.101209 64.588017l-52.826136 0-67.781756 63.299675 35.393091 37.863353c13.95278-12.45773 22.401196-21.409612 24.917506-26.898627l0.99056 0 0 5.977132c0 13.464663-0.488117 33.395598-0.488117 60.310597l0 60.816111-53.325509 0 0 49.331545L256.945535 315.287803l0-49.331545L203.101209 265.956258z" p-id="10001"></path><path d="M958.684924 713.984271c0-8.448416-7.472182-15.920598-15.951297-15.920598L336.682577 698.063673c-9.469676 0-15.950274 6.497994-15.950274 15.920598l0 95.735411c0 8.448416 7.472182 15.921621 15.950274 15.921621l606.051049 0c8.479115 0 15.951297-7.473205 15.951297-15.921621L958.684924 713.984271z" p-id="10002"></path><path d="M204.107119 555.019793l0 29.896914-63.301721 0c0.518816-8.479115 6.100952-16.798595 17.460674-25.916253 11.56029-9.3039 24.416086-17.932418 37.866423-25.4046 13.464663-7.472182 26.028816-18.345834 37.375236-31.901571 11.603269-13.861706 16.956184-29.418007 16.956184-45.856397 0-23.422456-8.616238-42.208311-24.917506-55.812143-16.576537-13.814634-36.887119-20.952194-61.318554-20.952194-38.382169 0-72.250534 19.930935-88.200808 53.844326l42.360783 29.40061c11.45182-19.427468 24.917506-28.912493 40.364313-28.912493 16.438391 0 26.89965 9.485025 26.89965 25.923416 0 23.422456-40.957831 42.744523-72.752977 67.783803-22.00313 17.336854-39.86187 46.334281-39.86187 80.248695 0 5.978155 0.977257 14.944364 2.989077 26.89965l180.413999 0 0-79.242785L204.107119 555.018769z" p-id="10003"></path><path d="M255.436158 867.51397c0-33.882692-21.424962-60.324924-55.308677-68.254523l47.333028-57.33687 0-43.85788L81.501734 698.064696l0 75.760474 52.838416 0 0-26.41358c5.459339 0 13.449313-0.028653 23.924899-0.488117 10.966773-0.517793 18.925025-0.517793 24.416086-0.517793l0 0.517793c-12.4608 11.95631-23.286356 24.032346-39.878243 46.327118l-15.950274 21.440311 12.94687 27.906583c34.907021-2.471284 52.336996 6.464225 52.336996 27.90556 0 18.451234-16.441461 28.393677-35.867906 28.393677-18.954701 0-36.384675-7.472182-52.838416-22.415522l-28.409027 43.889603c21.928429 21.927405 50.337455 32.876782 85.730547 32.876782 26.917046 0 49.225121-7.596002 67.281359-22.937408C246.375805 914.756947 255.436158 893.925503 255.436158 867.51397z" p-id="10004"></path><path d="M958.684924 825.64028" p-id="10005"></path></svg>