<?xml version="1.0" standalone="no"?><!DOCTYPE svg PUBLIC "-//W3C//DTD SVG 1.1//EN" "http://www.w3.org/Graphics/SVG/1.1/DTD/svg11.dtd"><svg t="1565075336743" class="icon" viewBox="0 0 1024 1024" version="1.1" xmlns="http://www.w3.org/2000/svg" p-id="9197" xmlns:xlink="http://www.w3.org/1999/xlink" width="200" height="200"><defs><style type="text/css"></style></defs><path d="M931.52 61.312H159.04v128.384H65.152c-17.664 0-34.496 12.544-34.496 30.208v64.192c0 17.664 16.768 33.984 34.496 33.984h93.888v64.192H65.152c-17.664 0-34.496 12.544-34.496 30.208v64.192c0 17.664 16.768 33.984 34.496 33.984h93.888v64.064H65.152c-17.664 0-34.496 12.544-34.496 30.208v64.192c0 17.664 16.768 33.984 34.496 33.984h93.888v64.192H65.152c-17.664 0-34.496 12.544-34.496 30.208v64.192c0 17.664 16.768 33.984 34.496 33.984h93.888V1024h772.544c35.392 0 61.76-30.72 61.76-66.048V123.648c0-35.52-26.368-62.336-61.824-62.336zM351.552 959.808h-128.32v-64.192h34.496c17.6 0 29.696-16.32 29.696-33.984V797.44c0-17.664-12.032-30.208-29.696-30.208h-34.496V703.04h34.496c17.6 0 29.696-16.32 29.696-33.984v-64.064c0-17.664-12.032-30.208-29.696-30.208h-34.496v-64.192h34.496c17.6 0 29.696-16.32 29.696-33.984v-64.192c0-17.664-12.032-30.208-29.696-30.208h-34.496V318.08h34.496c17.6 0 29.696-16.32 29.696-33.984v-64.192c0-17.664-12.032-30.208-29.696-30.208h-34.496v-64.192h128.384v834.304h-0.064z" fill="" p-id="9198"></path></svg>